<?xml version="1.0" encoding="UTF-8" standalone="no"?>
<svg
   xmlns:dc="http://purl.org/dc/elements/1.1/"
   xmlns:cc="http://creativecommons.org/ns#"
   xmlns:rdf="http://www.w3.org/1999/02/22-rdf-syntax-ns#"
   xmlns:svg="http://www.w3.org/2000/svg"
   xmlns="http://www.w3.org/2000/svg"
   xmlns:xlink="http://www.w3.org/1999/xlink"
   id="svg8"
   version="1.1"
   viewBox="0 0 270.93333 270.93334"
   height="1024"
   width="1024">
  <defs
     id="defs2">
    <linearGradient
       id="linearGradient2769">
      <stop
         style="stop-color:#ffffff;stop-opacity:1"
         offset="0"
         id="stop2765" />
      <stop
         style="stop-color:#64508d;stop-opacity:1"
         offset="1"
         id="stop2767" />
    </linearGradient>
    <linearGradient
       id="linearGradient842">
      <stop
         style="stop-color:#6024a1;stop-opacity:1"
         offset="0"
         id="stop838" />
      <stop
         id="stop846"
         offset="0.85825902"
         style="stop-color:#564079;stop-opacity:1" />
      <stop
         style="stop-color:#64308d;stop-opacity:1"
         offset="0.96986616"
         id="stop848" />
      <stop
         style="stop-color:#b8b8b8;stop-opacity:0"
         offset="1"
         id="stop840" />
    </linearGradient>
    <linearGradient
       id="linearGradient1407">
      <stop
         style="stop-color:#ffffff;stop-opacity:1"
         offset="0"
         id="stop1403" />
      <stop
         style="stop-color:#ffffff;stop-opacity:0"
         offset="1"
         id="stop1405" />
    </linearGradient>
    <linearGradient
       xlink:href="#linearGradient1407"
       id="linearGradient1409"
       x1="135.78214"
       y1="80.222252"
       x2="120.66309"
       y2="223.58391"
       gradientUnits="userSpaceOnUse" />
    <linearGradient
       xlink:href="#linearGradient2769"
       id="linearGradient908"
       x1="7.5721312"
       y1="261.21768"
       x2="7.5721312"
       y2="296.74744"
       gradientUnits="userSpaceOnUse" />
    <radialGradient
       xlink:href="#linearGradient842"
       id="radialGradient844"
       cx="135.46666"
       cy="161.53332"
       fx="135.46666"
       fy="161.53332"
       r="135.46666"
       gradientUnits="userSpaceOnUse" />
  </defs>
  <metadata
     id="metadata5">
    <rdf:RDF>
      <cc:Work
         rdf:about="">
        <dc:format>image/svg+xml</dc:format>
        <dc:type
           rdf:resource="http://purl.org/dc/dcmitype/StillImage" />
        <dc:title></dc:title>
      </cc:Work>
    </rdf:RDF>
  </metadata>
  <g
     id="layer1"
     transform="translate(0,-26.06665)">
    <rect
       style="fill:url(#radialGradient844);fill-opacity:1;fill-rule:nonzero;stroke:none;stroke-width:0.265;stroke-opacity:1;stroke-miterlimit:4;stroke-dasharray:none"
       id="rect1387"
       width="270.93332"
       height="270.93332"
       x="-2.7815501e-08"
       y="26.066664"
       rx="135"
       ry="135" />
    <circle
       style="fill:none;fill-opacity:1;fill-rule:nonzero;stroke:url(#linearGradient1409);stroke-width:12;stroke-miterlimit:4;stroke-dasharray:none;stroke-opacity:1"
       id="path1401"
       cx="135.40416"
       cy="161.59583"
       r="79.375" />
    <circle
       style="fill:#ffffff;fill-opacity:0.40000001;fill-rule:nonzero;stroke:none;stroke-width:9.60633278;stroke-miterlimit:4;stroke-dasharray:none;stroke-opacity:1"
       id="path1411"
       cx="98.273819"
       cy="197.97017"
       r="8.6934528" />
    <circle
       style="fill:#ffffff;fill-opacity:0.72000003;fill-rule:nonzero;stroke:none;stroke-width:9.60633278;stroke-miterlimit:4;stroke-dasharray:none;stroke-opacity:1"
       id="path1411-6"
       cx="177.64888"
       cy="129.6321"
       r="8.6934528" />
    <circle
       style="fill:#ffffff;fill-opacity:0.80000001;fill-rule:nonzero;stroke:none;stroke-width:9.60633278;stroke-miterlimit:4;stroke-dasharray:none;stroke-opacity:1"
       id="path1411-5"
       cx="101.07082"
       cy="123.88692"
       r="8.6934528" />
    <circle
       style="fill:#ffffff;fill-opacity:0.89999998;fill-rule:nonzero;stroke:none;stroke-width:9.60633278;stroke-miterlimit:4;stroke-dasharray:none;stroke-opacity:1"
       id="path1411-4"
       cx="140.15356"
       cy="109.5238"
       r="8.6934528" />
    <circle
       style="fill:#ffffff;fill-opacity:0.60000002;fill-rule:nonzero;stroke:none;stroke-width:9.60633278;stroke-miterlimit:4;stroke-dasharray:none;stroke-opacity:1"
       id="path1411-8"
       cx="82.625587"
       cy="160.24818"
       r="8.6934528" />
    <rect
       style="opacity:1;mix-blend-mode:normal;fill:url(#linearGradient908);fill-opacity:1.0;fill-rule:nonzero;stroke:none;stroke-width:0.2293;stroke-opacity:1"
       id="rect895"
       width="18.142859"
       height="35.529747"
       x="-10.570727"
       y="261.21768"
       ry="0.75595236"
       transform="rotate(-40)" />
    <path
       style="fill:#ffffff;fill-opacity:0.87439617;fill-rule:nonzero;stroke:none;stroke-width:0.49341387;stroke-miterlimit:4;stroke-dasharray:none;stroke-opacity:1"
       id="path6037"
       d="m 239.79008,162.77977 -0.0443,2.25781 c -0.019,0.50066 -0.51468,0.88827 -1.10709,0.86576 l -9.61229,-0.36523 c -0.5924,-0.0225 -1.05722,-0.44662 -1.03819,-0.94728 l 0.0367,-1.95994 c 0.003,-0.24058 0.11905,-0.46987 0.32249,-0.63744 0.20344,-0.16757 0.47766,-0.25968 0.76232,-0.25608 l 9.61846,0.12171 c 0.28466,0.004 0.55646,0.10263 0.7556,0.27529 0.19913,0.17266 0.30929,0.40482 0.30625,0.6454 m -0.9248,12.78005 -0.3445,2.53158 c -0.0881,0.49317 -0.63254,0.80849 -1.21609,0.70428 l -9.46867,-1.69093 c -0.58356,-0.10421 -0.98522,-0.58849 -0.89715,-1.08167 l 0.25513,-1.94634 c 0.0303,-0.23866 0.17159,-0.45329 0.39272,-0.59667 0.22113,-0.14339 0.50401,-0.20378 0.7864,-0.16789 l 9.54174,1.21247 c 0.28239,0.0359 0.54117,0.16511 0.71941,0.35924 0.17824,0.19413 0.26134,0.43727 0.23101,0.67593 m -2.55039,12.99815 -0.53467,1.88285 c -0.13686,0.48193 -0.71007,0.74133 -1.28031,0.5794 l -9.25266,-2.62746 c -0.57024,-0.16193 -0.92158,-0.68388 -0.78472,-1.1658 l 0.53467,-1.88286 c 0.0657,-0.23143 0.23767,-0.43428 0.47206,-0.55477 0.23439,-0.12049 0.5219,-0.15222 0.79927,-0.0882 l 9.3721,2.16307 c 0.27738,0.064 0.5219,0.21854 0.67978,0.42956 0.15787,0.21102 0.0602,1.03278 -0.006,1.26421 m -3.98333,11.99274 -0.95309,2.35375 c -0.20638,0.45649 -0.81157,0.6286 -1.35172,0.3844 l -8.76447,-3.96233 c -0.54015,-0.2442 -0.81073,-0.81223 -0.60435,-1.26873 l 0.7285,-1.82262 c 0.0883,-0.22381 0.27808,-0.39698 0.52774,-0.4814 0.24966,-0.0844 0.53869,-0.0732 0.80352,0.0312 l 8.94808,3.52812 c 0.26483,0.10442 0.48375,0.29347 0.60861,0.52556 0.12486,0.23209 0.14543,0.48822 0.0572,0.71203 m -5.65568,11.92472 -0.97565,1.69681 c -0.24972,0.43431 -0.86875,0.54685 -1.38265,0.25137 l -8.33842,-4.79449 c -0.5139,-0.29549 -0.72805,-0.8871 -0.47833,-1.32141 l 0.97564,-1.69681 c 0.11992,-0.20856 0.33297,-0.35221 0.59226,-0.39935 0.2593,-0.0471 0.55539,-0.0375 0.80876,0.0923 l 8.561,4.38468 c 0.25337,0.12977 0.19487,0.82633 0.28458,1.07414 0.0897,0.24781 0.0727,0.5042 -0.0472,0.71276 m -6.77958,10.62863 -1.50204,2.0308 c -0.30955,0.39391 -0.93833,0.4163 -1.40442,0.05 l -7.56278,-5.94317 c -0.46609,-0.36628 -0.59299,-0.98253 -0.28344,-1.37644 l 1.16455,-1.57949 c 0.13942,-0.19606 0.36529,-0.31856 0.62792,-0.34054 0.26263,-0.022 0.54051,0.0584 0.7725,0.22332 l 7.83868,5.5742 c 0.23199,0.16498 0.3991,0.40108 0.46455,0.65637 0.0655,0.25529 0.0239,0.50886 -0.11552,0.70492 m -8.38103,10.15154 -1.35064,1.41664 c -0.3457,0.36259 -0.97375,0.32493 -1.4028,-0.0841 l -6.96159,-6.63726 c -0.42904,-0.40905 -0.4966,-1.03459 -0.1509,-1.39719 l 1.35064,-1.41663 c 0.16601,-0.17413 0.40707,-0.26309 0.67014,-0.24731 0.26308,0.0158 0.52662,0.13499 0.73266,0.33142 l 6.96159,6.63726 c 0.20603,0.19643 0.33768,0.45399 0.36598,0.71602 0.0283,0.26202 -0.0491,0.50705 -0.21508,0.68117 m -9.14021,8.66704 -1.95901,1.5924 c -0.39391,0.30955 -1.01016,0.18265 -1.37644,-0.28344 l -5.94317,-7.56278 c -0.36627,-0.46609 -0.34387,-1.09487 0.05,-1.40442 l 1.52542,-1.23459 c 0.18184,-0.15752 0.43028,-0.22311 0.69066,-0.18234 0.26037,0.0408 0.51136,0.18454 0.69775,0.39971 l 6.29764,7.27025 c 0.18639,0.21517 0.2929,0.4841 0.29611,0.74762 0.003,0.26353 -0.0971,0.50008 -0.27899,0.65759 m -131.759856,2.20402 -1.538972,-1.20939 c -0.393907,-0.30955 -0.821151,-1.30368 -0.433028,-1.75175 l 6.297649,-7.27024 c 0.388123,-0.44807 1.011046,-0.53821 1.404954,-0.22866 l 1.538972,1.20939 c 0.189161,0.14866 0.300702,0.38013 0.310085,0.64351 0.0094,0.26339 -0.08416,0.5371 -0.260055,0.76092 l -5.943168,7.56278 c -0.175893,0.22382 -0.419725,0.37943 -0.677857,0.43258 -0.258132,0.0532 -0.509419,-4.9e-4 -0.69858,-0.14914 m -9.843831,-8.738 -1.350635,-1.41663 c -0.345702,-0.3626 -0.278141,-0.98814 0.150901,-1.3972 l 6.961591,-6.63725 c 0.429042,-0.40906 1.057096,-0.44672 1.402799,-0.0841 l 1.350634,1.41663 c 0.166012,0.17413 0.260152,0.41788 0.244376,0.68096 -0.01578,0.26308 -0.134993,0.52662 -0.331428,0.73265 l -6.637254,6.96159 c -0.196435,0.20604 -0.453994,0.33768 -0.716019,0.36598 -0.262025,0.0283 -0.908953,-0.44848 -1.074965,-0.62261 m -8.301059,-9.47551 -1.54001,-2.00241 c -0.290332,-0.40828 -0.134066,-1.01774 0.349031,-1.36128 l 7.838682,-5.57421 c 0.483097,-0.34353 1.110086,-0.29105 1.40042,0.11723 l 1.202523,1.55109 c 0.148651,0.18916 0.2023,0.44045 0.149144,0.69858 -0.05316,0.25814 -0.208763,0.50197 -0.432589,0.67786 l -7.562774,5.94317 c -0.223825,0.17589 -0.497536,0.26944 -0.760917,0.26005 -0.263381,-0.009 -0.494859,-0.12092 -0.64351,-0.31008 m -7.42418,-10.88279 -0.975645,-1.69681 c -0.249721,-0.43431 -0.03557,-1.02592 0.478331,-1.32141 l 8.338421,-4.79449 c 0.513896,-0.29548 1.13293,-0.18294 1.382652,0.25136 l 0.975645,1.69681 c 0.119921,0.20857 0.136896,0.46495 0.04719,0.71277 -0.0897,0.24781 -0.253435,0.50249 -0.493084,0.65613 l -8.097431,5.19116 c -0.239649,0.15364 -0.804522,-0.24903 -1.06382,-0.29617 -0.259298,-0.0471 -0.47234,-0.19079 -0.592261,-0.39935 m -5.763873,-11.22395 -0.997782,-2.33485 c -0.183762,-0.46606 0.114323,-1.02015 0.665793,-1.23758 l 8.948083,-3.52812 c 0.55147,-0.21744 1.147493,-0.0159 1.331256,0.45017 l 0.77319,1.80373 c 0.09911,0.21922 0.09111,0.47604 -0.02223,0.71398 -0.113338,0.23793 -0.322735,0.43748 -0.582126,0.55474 l -8.76447,3.96234 c -0.259391,0.11727 -0.547528,0.14265 -0.801024,0.0706 -0.253496,-0.0721 -0.451586,-0.23575 -0.550693,-0.45497 m -4.539123,-12.41339 -0.53467,-1.88285 c -0.136851,-0.48193 0.214481,-1.00388 0.784721,-1.16581 l 9.252666,-2.62746 c 0.570241,-0.16193 1.143452,0.0975 1.280305,0.5794 l 0.53467,1.88286 c 0.06572,0.23142 0.01996,0.48427 -0.127201,0.7029 -0.147163,0.21863 -0.38368,0.38514 -0.65752,0.4629 l -9.252666,2.62746 c -0.273839,0.0778 -0.562569,0.0604 -0.802673,-0.0482 -0.240104,-0.10866 -0.411913,-0.29972 -0.477632,-0.53115 m -2.836938,-12.3272 -0.393744,-2.52405 c -0.06315,-0.49699 0.362368,-0.96045 0.950424,-1.03517 l 9.541738,-1.21248 c 0.588056,-0.0747 1.115964,0.26759 1.179117,0.76457 l 0.304372,1.93882 c 0.04229,0.23683 -0.02847,0.48384 -0.196715,0.6867 -0.168247,0.20285 -0.420201,0.34492 -0.700433,0.39497 l -9.468673,1.69093 c -0.280232,0.05 -0.565788,0.004 -0.793848,-0.12812 -0.228061,-0.13208 -0.379944,-0.33933 -0.422238,-0.57617 m -1.361464,-13.03903 -0.06933,-2.25718 c -0.0063,-0.50098 0.469068,-0.91318 1.061852,-0.92068 l 9.618456,-0.12172 c 0.592784,-0.008 1.07847,0.39254 1.08481,0.89352 l 0.06179,1.95931 c 0.0091,0.24043 -0.09511,0.4753 -0.289814,0.65295 -0.1947,0.17765 -0.463902,0.28352 -0.748385,0.29433 l -9.612289,0.36523 c -0.284483,0.0108 -0.560943,-0.0743 -0.768562,-0.23669 -0.20762,-0.16236 -0.329391,-0.38865 -0.338526,-0.62907 m 0.277007,-12.79284 0.222139,-2.53308 c 0.06176,-0.49716 0.588703,-0.84096 1.17697,-0.76788 l 9.545154,1.18566 c 0.588266,0.0731 1.015088,0.53534 0.953333,1.0325 l -0.164847,1.95574 c -0.01785,0.23992 -0.147741,0.46162 -0.361098,0.61633 -0.213357,0.15471 -0.492703,0.22976 -0.776585,0.20864 l -9.591992,-0.71366 c -0.283882,-0.0211 -0.549046,-0.13669 -0.737159,-0.32127 -0.188113,-0.18458 -0.283765,-0.42306 -0.265915,-0.66298 m 1.892284,-13.07663 0.430532,-1.90937 c 0.110198,-0.48871 0.66831,-0.77918 1.24658,-0.64879 l 9.38295,2.11571 c 0.57827,0.13039 0.957718,0.63227 0.847522,1.12098 l -0.430532,1.90936 c -0.05292,0.23469 -0.213984,0.43489 -0.447763,0.55657 -0.233779,0.12167 -0.523855,0.19957 -0.804285,0.15064 l -9.475358,-1.65332 c -0.28043,-0.0489 -0.425119,-0.73669 -0.58406,-0.94692 -0.158941,-0.21022 -0.218504,-0.46017 -0.165586,-0.69486 m 3.347817,-12.17153 0.838074,-2.39394 c 0.180376,-0.46738 0.774922,-0.67325 1.327955,-0.45982 l 8.973467,3.46309 c 0.553034,0.21343 0.855133,0.76534 0.674758,1.23272 l -0.644562,1.85363 c -0.07557,0.22841 -0.255406,0.41193 -0.499945,0.51021 -0.244538,0.0983 -0.533748,0.10325 -0.804006,0.0138 l -9.131671,-3.02137 c -0.270259,-0.0894 -0.499428,-0.26591 -0.637092,-0.49064 -0.137665,-0.22474 -0.172549,-0.47931 -0.09698,-0.70771 m 5.031683,-12.20214 0.879219,-1.74872 c 0.225041,-0.44759 0.836811,-0.59458 1.366427,-0.3283 l 8.593498,4.32064 c 0.529616,0.26628 0.776523,0.84499 0.551483,1.29258 l -0.879219,1.74872 c -0.108068,0.21494 -0.312743,0.37028 -0.568998,0.43185 -0.256255,0.0616 -0.543099,0.0243 -0.79743,-0.10356 l -8.593497,-4.32063 c -0.254331,-0.12787 -0.455315,-0.33589 -0.558738,-0.5783 -0.103423,-0.24241 -0.100814,-0.49934 0.0073,-0.71428 m 6.215002,-10.98758 1.405115,-2.11501 c 0.288084,-0.40987 0.914772,-0.4658 1.399748,-0.12492 l 7.869163,5.53102 c 0.484975,0.34087 0.644588,0.94947 0.356505,1.35933 l -1.085111,1.63516 c -0.12853,0.20337 -0.347389,0.33799 -0.608429,0.37425 -0.26104,0.0363 -0.542879,-0.0288 -0.783515,-0.18089 l -8.13078,-5.13871 c -0.240637,-0.15208 -0.420359,-0.37873 -0.499629,-0.63007 -0.07927,-0.25134 -0.0516,-0.5068 0.07693,-0.71016 m 7.874686,-10.60969 1.277514,-1.482894 c 0.326987,-0.379554 0.956136,-0.373592 1.405245,0.01332 l 7.2872,6.277927 c 0.449109,0.386908 0.548109,1.008252 0.221123,1.387802 l -1.277514,1.48289 c -0.157024,0.18227 -0.393292,0.28327 -0.656827,0.28077 -0.263535,-0.002 -0.532749,-0.10828 -0.748419,-0.29408 l -7.287199,-6.277926 c -0.21567,-0.1858 -0.360129,-0.436396 -0.401598,-0.696659 -0.04147,-0.260264 0.02345,-0.508876 0.180475,-0.691145 m 8.722581,-9.146181 1.884335,-1.710092 c 0.379555,-0.326986 1.000895,-0.227986 1.387803,0.221123 l 6.277927,7.287199 c 0.386907,0.449109 0.392869,1.078259 0.01331,1.405246 l -1.452826,1.319326 c -0.174278,0.165848 -0.419374,0.242985 -0.68137,0.214442 -0.261996,-0.02854 -0.519431,-0.16043 -0.715672,-0.366645 l -6.630702,-6.967732 c -0.19624,-0.206216 -0.315212,-0.469868 -0.330741,-0.732956 -0.01553,-0.263089 0.07365,-0.504063 0.247932,-0.669911 m 10.235227,-8.3642 1.601319,-1.125523 c 0.409866,-0.288083 1.018463,-0.12847 1.359339,0.356505 l 5.531017,7.869163 c 0.340876,0.484975 0.284949,1.111663 -0.124917,1.399748 l -1.601319,1.125523 c -0.196825,0.138342 -0.450616,0.178502 -0.705541,0.111645 -0.254926,-0.06686 -0.490104,-0.235256 -0.653799,-0.46815 l -5.531017,-7.869162 c -0.163695,-0.232894 -0.242496,-0.511205 -0.21907,-0.773709 0.02343,-0.262504 0.147163,-0.487697 0.343988,-0.62604 m 10.683071,-6.729231 2.240559,-1.189931 c 0.447594,-0.22504 1.026302,0.02187 1.292583,0.551483 l 4.320635,8.593498 c 0.26628,0.529616 0.119298,1.141386 -0.328295,1.366427 l -1.733732,0.919405 c -0.20941,0.118432 -0.465912,0.133582 -0.713078,0.04211 -0.247166,-0.09147 -0.46475,-0.282055 -0.604885,-0.529841 l -4.734988,-8.372331 c -0.140135,-0.247785 -0.191343,-0.532469 -0.142358,-0.791424 0.04898,-0.258955 0.194149,-0.470968 0.403559,-0.589401 m 11.954886,-5.59541 1.826037,-0.704715 c 0.467384,-0.180375 1.019293,0.121724 1.232723,0.674758 l 3.46309,8.973467 c 0.21343,0.553033 0.008,1.147579 -0.45982,1.327955 l -1.82604,0.704715 c -0.22445,0.08662 -0.48041,0.06419 -0.71159,-0.06235 -0.23118,-0.126542 -0.41864,-0.346831 -0.521133,-0.612408 l -3.463092,-8.973467 c -0.102493,-0.265576 -0.111627,-0.554684 -0.02539,-0.803724 0.08623,-0.24904 0.260772,-0.437612 0.485218,-0.524231 m 11.99813,-3.91933 2.46617,-0.599454 c 0.48871,-0.110197 0.99059,0.269252 1.12098,0.847521 l 2.11571,9.38295 c 0.13039,0.57827 -0.16008,1.136382 -0.6488,1.24658 l -1.90805,0.459186 c -0.23182,0.06433 -0.48438,0.01706 -0.70213,-0.13141 -0.21774,-0.148471 -0.38284,-0.385983 -0.45896,-0.660284 l -2.57199,-9.268274 c -0.0761,-0.274301 -0.057,-0.562923 0.0531,-0.802372 0.11009,-0.23945 0.30218,-0.410112 0.534,-0.474443 m 12.96964,-2.499383 1.94237,-0.241274 c 0.49716,-0.06175 1.51941,0.31444 1.56339,0.905593 l 0.71366,9.591993 c 0.044,0.591153 -0.3296,1.116115 -0.82677,1.177871 l -1.94237,0.241274 c -0.23874,0.02966 -0.48165,-0.05412 -0.67528,-0.232908 -0.19363,-0.178785 -0.32212,-0.437929 -0.35721,-0.720425 l -1.18567,-9.545154 c -0.0351,-0.282496 0.0261,-0.565202 0.1701,-0.785927 0.14401,-0.220724 0.35904,-0.361387 0.59778,-0.391043 m 12.60603,-0.869943 2.54549,0.02474 c 0.50083,0.01241 0.89492,0.502877 0.88023,1.095482 l -0.23832,9.615545 c -0.0147,0.592605 -0.43259,1.062944 -0.93342,1.050532 l -1.96248,-0.02474 c -0.2405,0.006 -0.47396,-0.101371 -0.64901,-0.298384 -0.17505,-0.197013 -0.27736,-0.467569 -0.28441,-0.752148 l -0.23832,-9.615545 c -0.007,-0.284579 0.0817,-0.55987 0.2468,-0.765313 0.16508,-0.205443 0.39293,-0.324208 0.63344,-0.330169 m 13.20184,0.75174 1.94237,0.241274 c 0.49716,0.06176 1.39453,0.676496 1.29264,1.260461 l -1.65332,9.475358 c -0.10189,0.583965 -0.59244,1.001393 -1.0896,0.939638 l -1.94238,-0.241274 c -0.23874,-0.02966 -0.45377,-0.170319 -0.59777,-0.391043 -0.14401,-0.220725 -0.2052,-0.503431 -0.17011,-0.785927 l 1.18567,-9.545154 c 0.0351,-0.282496 0.16358,-0.54164 0.35721,-0.720425 0.19363,-0.178785 0.43654,-0.262564 0.67529,-0.232908 m 12.429,2.23774 2.45427,0.646816 c 0.48274,0.133963 0.74558,0.705613 0.58706,1.276815 l -2.57199,9.268274 c -0.15851,0.571202 -0.67834,0.925656 -1.16108,0.791694 l -1.89615,-0.506547 c -0.23469,-0.05292 -0.43489,-0.213984 -0.55657,-0.447763 -0.12167,-0.233779 -0.15485,-0.521123 -0.0922,-0.798818 l 2.11571,-9.382949 c 0.0626,-0.277695 0.21589,-0.522995 0.42612,-0.681936 0.21023,-0.158941 0.46018,-0.218504 0.69486,-0.165586 m 12.59576,3.953927 1.82604,0.704714 c 0.46738,0.180376 1.18017,1.003948 0.94004,1.545919 l -3.89643,8.793975 c -0.24013,0.541971 -0.81222,0.816661 -1.2796,0.636286 l -1.82604,-0.704714 c -0.22445,-0.08662 -0.39898,-0.275191 -0.48522,-0.524231 -0.0862,-0.24904 -0.0771,-0.538149 0.0254,-0.803725 l 3.46309,-8.973467 c 0.10249,-0.265576 0.28995,-0.485866 0.52113,-0.612407 0.23118,-0.126542 0.48714,-0.14897 0.71159,-0.06235 m 11.50092,5.199206 2.21761,1.23294 c 0.43607,0.246623 0.55301,0.864839 0.2612,1.380825 l -4.73499,8.372331 c -0.29182,0.515985 -0.88189,0.734348 -1.31796,0.487726 l -1.71078,-0.962414 c -0.21494,-0.108068 -0.37028,-0.312743 -0.43185,-0.568998 -0.0616,-0.256255 -0.0243,-0.543099 0.10356,-0.79743 l 4.32063,-8.593497 c 0.12787,-0.254331 0.33589,-0.455315 0.5783,-0.558738 0.24241,-0.103423 0.49934,-0.100814 0.71428,0.0073 m 11.24713,6.919275 1.60132,1.125523 c 0.40987,0.288085 0.8982,1.272662 0.5339,1.740299 l -5.91105,7.587834 c -0.3643,0.467637 -0.97842,0.585366 -1.38829,0.297283 l -1.60132,-1.125523 c -0.19682,-0.138343 -0.32056,-0.363536 -0.34399,-0.62604 -0.0234,-0.262504 0.0554,-0.540815 0.21907,-0.773709 l 5.53102,-7.869162 c 0.16369,-0.232894 0.39887,-0.401292 0.6538,-0.46815 0.25492,-0.06686 0.50872,-0.0267 0.70554,0.111645 m 10.32509,8.254568 1.41789,1.349301 c 0.36291,0.345362 0.32584,0.973446 -0.0828,1.402866 l -6.6307,6.967732 c -0.40865,0.429421 -1.03413,0.497565 -1.39704,0.152204 l -1.41789,-1.349301 c -0.17428,-0.165848 -0.28504,-0.399935 -0.28255,-0.66347 0.002,-0.263535 0.10828,-0.532749 0.29408,-0.748419 l 6.27793,-7.287199 c 0.1858,-0.21567 0.4364,-0.360129 0.69666,-0.401598 0.26026,-0.04147 0.95016,0.412036 1.12443,0.577884 m 8.79135,9.080732 1.27752,1.482894 c 0.32698,0.379555 0.56061,1.455223 0.093,1.819521 l -7.58784,5.911055 c -0.46763,0.36429 -1.09172,0.32802 -1.41871,-0.0515 l -1.27751,-1.4829 c -0.15703,-0.18226 -0.22195,-0.43088 -0.18048,-0.69114 0.0415,-0.26026 0.18593,-0.510859 0.4016,-0.696659 l 7.2872,-6.277926 c 0.21567,-0.1858 0.48488,-0.291584 0.74842,-0.294081 0.26353,-0.0025 0.4998,0.0985 0.65682,0.280766 m 7.98826,10.52559 1.0457,1.65455 c 0.26765,0.4235 0.0784,1.02354 -0.4227,1.34024 l -8.13078,5.13871 c -0.5011,0.3167 -1.12429,0.23013 -1.39194,-0.19337 l -1.0457,-1.65455 c -0.12853,-0.20337 -0.1772,-0.45837 -0.11034,-0.7133 0.0669,-0.25492 0.23526,-0.4901 0.46815,-0.65379 l 7.86916,-5.53102 c 0.2329,-0.1637 0.51121,-0.2425 0.77371,-0.21907 0.26251,0.0234 0.81621,0.62823 0.94474,0.8316 m 6.29656,10.94145 0.87922,1.74871 c 0.22504,0.4476 0.17874,1.54665 -0.36323,1.78679 l -8.79397,3.89642 c -0.54197,0.24013 -1.12917,0.0493 -1.35421,-0.39829 l -0.87922,-1.74871 c -0.10806,-0.21494 -0.11067,-0.47188 -0.007,-0.71429 0.10342,-0.2424 0.30441,-0.45042 0.55874,-0.5783 l 8.59349,-4.32063 c 0.25434,-0.12787 0.54118,-0.16512 0.79743,-0.10355 0.25626,0.0616 0.46093,0.2169 0.569,0.43185 m 5.16121,12.14849 0.61483,1.85823 c 0.15737,0.47562 -0.17128,1.01214 -0.73407,1.19835 l -9.13167,3.02137 c -0.56278,0.1862 -1.14658,-0.0484 -1.30395,-0.52404 l -0.61483,-1.85823 c -0.0756,-0.2284 -0.0481,-0.49224 0.0785,-0.72342 0.12654,-0.23118 0.34683,-0.41863 0.61241,-0.52113 l 8.97346,-3.46309 c 0.26558,-0.10249 0.55469,-0.11162 0.80373,-0.0254 0.24904,0.0862 0.62605,0.80894 0.70162,1.03735 m 3.43811,12.14647 0.53433,2.48264 c 0.0861,0.49353 -0.31747,0.97621 -0.90144,1.0781 l -9.47536,1.65332 c -0.58396,0.10189 -1.12717,-0.21559 -1.21328,-0.70911 l -0.4213,-1.91705 c -0.0529,-0.23469 0.007,-0.48464 0.16558,-0.69486 0.15895,-0.21023 0.40425,-0.36351 0.68194,-0.42612 l 9.38295,-2.11571 c 0.2777,-0.0626 0.56504,-0.0294 0.79882,0.0922 0.23378,0.12167 0.39484,0.32188 0.44776,0.55656 m 2.03206,13.0558 0.14523,1.9519 c 0.0372,0.4996 -0.41193,0.94026 -1.00308,0.98425 l -9.59199,0.71366 c -0.59115,0.044 -1.10051,-0.32537 -1.13768,-0.82497 l -0.14523,-1.9519 c -0.0179,-0.23992 0.0835,-0.49036 0.26228,-0.68399 0.17879,-0.19363 0.43793,-0.32212 0.72043,-0.35721 l 9.54515,-1.18567 c 0.2825,-0.0351 0.5652,0.0261 0.78593,0.17011 0.22072,0.144 0.40111,0.9439 0.41896,1.18382" />
  </g>
</svg>
