/* XPM */
static char *qmidiplayer[] = {
/* columns rows colors chars-per-pixel */
"64 64 171 2 ",
"   c None",
".  c #54357F",
"X  c #563E7B",
"o  c #593D7E",
"O  c #56407A",
"+  c #5A417E",
"@  c #5A2F8E",
"#  c #563780",
"$  c #5D3686",
"%  c #573981",
"&  c #5A3A82",
"*  c #573188",
"=  c #5A338B",
"-  c #5E3A8B",
";  c #5D2D94",
":  c #5F269E",
">  c #5E299A",
",  c #5C3090",
"<  c #603487",
"1  c #63358B",
"2  c #613C8E",
"3  c #693A8E",
"4  c #613695",
"5  c #633B94",
"6  c #6B3E90",
"7  c #663C98",
"8  c #6025A0",
"9  c #5D4382",
"0  c #5F4188",
"q  c #604586",
"w  c #634B86",
"e  c #62448A",
"r  c #654B8B",
"t  c #684C8E",
"y  c #67508E",
"u  c #6A538D",
"i  c #6E588F",
"p  c #654391",
"a  c #6D4292",
"s  c #674890",
"d  c #6B4D93",
"f  c #6C459B",
"g  c #704593",
"h  c #754C95",
"j  c #704C9D",
"k  c #6E5492",
"l  c #6E5991",
"z  c #715696",
"x  c #735C94",
"c  c #73549B",
"v  c #7A5498",
"b  c #765C99",
"n  c #795D9D",
"m  c #766196",
"M  c #786396",
"N  c #776399",
"B  c #7B639C",
"V  c #7D699C",
"C  c #744DA2",
"Z  c #7753A2",
"A  c #7C5CA3",
"S  c #7E64A0",
"D  c #816D9E",
"F  c #83709F",
"G  c #825FAB",
"H  c #8165A5",
"J  c #836CA4",
"K  c #8362AA",
"L  c #876AAA",
"P  c #896DAC",
"I  c #8572A3",
"U  c #8976A4",
"Y  c #8B79A6",
"T  c #8C74AB",
"R  c #8D7AA9",
"E  c #917DAD",
"W  c #8D6EB3",
"Q  c #8E72B0",
"!  c #9071B4",
"~  c #947BB2",
"^  c #9584AE",
"/  c #9788AF",
"(  c #9683B2",
")  c #9A85B4",
"_  c #9C8BB4",
"`  c #9D84BC",
"'  c #9F8CB8",
"]  c #9F90B5",
"[  c #9F93B9",
"{  c #A18DBB",
"}  c #A191B7",
"|  c #A494BB",
" . c #A897BE",
".. c #A798BB",
"X. c #AA9CBE",
"o. c #A38BC0",
"O. c #A690C2",
"+. c #A996C2",
"@. c #AC9BC2",
"#. c #AD96C8",
"$. c #AF9CC8",
"%. c #B09FC5",
"&. c #B29DCA",
"*. c #AEA1C1",
"=. c #B1A4C4",
"-. c #B5A9C6",
";. c #B5A4CA",
":. c #BAADCB",
">. c #BDB2CD",
",. c #BEADD2",
"<. c #BFB3D0",
"1. c #BFB2D0",
"2. c #C0B6CF",
"3. c #C0B7CF",
"4. c #C0AFD4",
"5. c #C0B4D0",
"6. c #C3B6D4",
"7. c #C4B7D4",
"8. c #C2B4D3",
"9. c #C3B8D2",
"0. c #C6BBD5",
"q. c #C7BDD5",
"w. c #C5BBD4",
"e. c #C9BDD7",
"r. c #C6B7D8",
"t. c #CABED9",
"y. c #C9BBD9",
"u. c #C7C0D6",
"i. c #CBC0DA",
"p. c #CCC2D9",
"a. c #CEC3DB",
"s. c #D0C6DE",
"d. c #D3CBDF",
"f. c #D3C7E1",
"g. c #D6CDE2",
"h. c #D5CBE2",
"j. c #D7D2E1",
"k. c #D9D2E3",
"l. c #D9D0E3",
"z. c #DAD3E4",
"x. c #DDD6E6",
"c. c #DAD2E4",
"v. c #DED8E7",
"b. c #DFD9E9",
"n. c #E4DEEB",
"m. c #E5DFEC",
"M. c #E2DCEB",
"N. c #E6E1EE",
"B. c #E9E5EF",
"V. c #E9E4EF",
"C. c #EAE6EF",
"Z. c #E8E4EE",
"A. c #EAE6F0",
"S. c #EEEBF3",
"D. c #EDE9F2",
"F. c #EFECF4",
"G. c #EDE8F2",
"H. c #F2EFF5",
"J. c #F1EEF5",
"K. c #F0EEF5",
"L. c #F5F3F7",
"P. c #F3F1F7",
"I. c #F5F3F8",
"U. c #F6F4F8",
"Y. c #F8F7FA",
"T. c #F9F8FB",
"R. c #FCFBFD",
"E. c #FCFCFD",
"W. c #FDFDFE",
"Q. c #FFFFFF",
"!. c #FEFEFF",
/* pixels */
"                                                            H h H h                                                             ",
"                                                h g 6 3 1 1 < 1 1 1 1 3 6 6 6 H                                                 ",
"                                          h 6 1 1 < < < < < & < . 1 . 1 1 1 < 1 1 3 h                                           ",
"                                      g 1 1 1 $ < < & & o o o o o o o o o o < . < < 1 1 g                                       ",
"                                  g 1 < < < & o o o o X O X O X X X X X o o o o o & < < < 1 a                                   ",
"                              g 1 1 < $ o o o + O O O X O O O O X X X X o o X X O o o o < $ < 3 g                               ",
"                          v 3 1 < o & o o O O O O O O X X X X o O O X X O O X X O O O o o & $ < 1 3 v                           ",
"                        h 1 < $ < o o O O O O O O + w o m D X D U X x D o + + X X o O O O o o % < < 3 h                         ",
"                      g 1 < & o o O O O X X + w X U | X R -.X _ ..X _ } X _ R X 9 9 O O O O O o o < < 1 g                       ",
"                    a 1 < & o o O O X O + o m *.9 N 9.0 V -.# ^ _ o X.R & 1.I o X.F X + + O O O o o & < < g                     ",
"                  a 1 < o o o X O X X w *.i 0 >.B 0 } r e x # e e o v w e | r x q.u w } w O X O X o o o < 1 g                   ",
"                g 1 < & o O O o X u u o X...o J x . % % q d b B n v u q % & X b R # _ :.9 9 w O O O o o & < 1 g                 ",
"              h 1 < o o o O X X X U -.9 k _ - # - x _ >.k.B.P.I.U.H.A.z.8._ b & # 9 | b % *._ X X o O O o o < 1 h               ",
"            v 3 < < o o X X + F r & *.R # o q U w.C.Y.W.W.W.W.W.W.W.W.W.W.W.S.0.T 0 9 # I <.u 0 m O X O O o & < 1 v             ",
"            3 1 < O O O O o + X.-.q r t % J w.S.I.Y.U.J.N.h.t.8.9.t.k.Z.U.R.R.W.U.p.J % k k & } -.9 X X O o o & 1 3             ",
"          g 1 < o O O O + x + w @.B . r  .n.S.K.S.d.$.P j e - - - - 3 c T ;.x.L.T.T.D.@.w # B >.i o w O O o o o < 1 g           ",
"          1 < & o O O X 9 *...0 9 & k 1.Z.A.Z.i.~ s = * = = = * * = * = * = f ) h.J.I.J.0.z 0 e o / :.w X X O X % < 1           ",
"        a < < o X O X 9 o w X.J # x 0.n.n.c.{ s * = = = = = = 5 S L 5 = = * * * s +.n.J.K.a.x . J >.x X + O O X o & < g         ",
"        1 < & o O X O | ] w & 9 k <.b.b.t.H = = = = = = = = , o.A.G.,.- = = = = = - J h.D.D.p.k e w & Y / + O O o o < 1         ",
"      a < < o O O X X x -.} & e ;.l.l.1.c * = = = = , = = = 7 h.J.F.Z.Z = = = = = = = n p.N.N.>.e o _ w.V o o O o o < < g       ",
"      3 < < O O X w x o 0 r & ) s.h.1.c * = = p 4 @ , = = @ 4 8.P.L.l.f , = , = = = = * b a.M.M.{ & b r X r + O O o o < 3       ",
"    h 1 o o O O X i >.=.k # B 0.a.7.S * = = Q r.,.A @ ; ; ; ; Z &.,.G ; ; , , = @ = = = = H h.v.h.B # r } 8.x X O o o < < h     ",
"    3 < o o O O X X q R k 0  .t.q.~ = = * j f.b.M.,.4 = ; ; ; ; ; ; ; ; , , , , f ~ ~ a = - ) k.z.=.0 V | m o X O O o o 1 6     ",
"    3 < < O O o M / k % # B 8.0.$.e = = * Z h.b.b.r.4 ; ; ; ; ; ; ; ; ; ; ; , 4 $.f.h.+., = s :.h.s.V # % q V u X O o & $ 1     ",
"  h 1 $ o O o X x =.>.x % ' >.:.H * = = = , o.h.a.W ; ; ; ; ; ; > ; ; ; ; ; ; j y.f.f.6.a = = T s.s. .% x >.8.x X X O o < 1 h   ",
"  g 1 & o O O o X X r - d =.:.+.p = = = = ; 4 C f ; ; > ; > > > ; > > ; ; ; ; 4 #.f.f.O., = * s :.p.8.d t B 9 X X X O o & 1 g   ",
"  3 < & o O O i ..E u # H =.;.T = = = = ; = @ ; ; ; ; > > ; > > > > > ; > ; ; ; 7 ! ! 7 = = = = ~ e.0.J # q M U w O O o & < a   ",
"  3 < o O O X w / =.J % R $.@.c = = = = = = ; , ; ; ; > > > > > > > > > ; > ; ; ; @ @ = , = = = A 2.7.) % ^ 2.*.w O O o o < 3   ",
"  3 < o o O X X X X & 0 ( @.{ p = = = = @ ; ; ; ; > ; > > > > : : > : > > ; > ; ; ; = ; = = = * s ;.>. .- 0 9 X o O O o & < 1   ",
"  1 < o O O o / =._ e e _ | ~ - = = f A f ; ; ; ; ; > > > > > : : : > > > > > ; ; , ; = ; = = = 2 { :.@.r q I _ V o O O o < 1   ",
"v 1 < o O O O M E ^ 0 r ) { T - = j $.,.%.C ; ; > ; > > : : : : : : : > > ; ; ; ; ; ; = = = = = - ( ;.@.t k X.X.D X O O o < 1 v ",
"v 1 < o o O o X o # # t ( ' H = * T ,.,.,.! ; ; ; > > > > 8 8 8 8 8 : : > > > > ; ; ; ; , , = = = ~ %. .t & u r + o O O o < 1 v ",
"v 1 < o O O O _ :...e s ~ ( H - , A ,.1.,.A ; ; ; > > > > : : 8 8 8 : > > > ; > ; , ; , = = = = = Q @.[ y k :.w./ + O O & $ 1 v ",
"v 1 < o O O + m J N 9 e T ~ S = - - S ` W , ; ; ; ; > > : : : : : : : : > > > ; ; ; , , ; = = = = R O.[ e & e u 9 X O X o $ 1 v ",
"  1 < o O + X o 9 w & 0 I T H - = , = , ; , ; ; > ; > > > : > : : : > > > > ; ; ; ; , ; = = = = - Q [ ( 0 r N l 9 + O O o $ 1   ",
"  3 $ % O O X U >.>.x & S T H - = = , , , , @ ; ; > > > > > > > : > > > > ; > ; ; ; , = , = = = p ( ` T & N >.<.F O O O & < 1   ",
"  3 $ & O O o i V u & % x H H s * = = , , , @ ; ; ; > > > > > > > > > > > > ; ; ; , , , = = = * d ( ( S % % 9 y w o O o & < 3   ",
"  6 < & o O O o o k N & d S S z - * = = , , @ ; , ; ; ; ; > > > > > > > ; ; ; ; ; , , , = = = = n Q E z - ^ U l X O O o & 1 3   ",
"  a < $ o O O + ..<.' 9 - b S c 0 = = = @ , C Z f ; ; ; ; > ; > ; > > ; ; ; ; , , , , = = = = 0 S Q T e 9 ^ -.[ O O O o $ < g   ",
"  v 1 < + O O + i r # # % k c c p = = = @ Z ` ` ! , ; ; ; > ; > ; ; ; ; ; ; , ; , , , , = = = d S T N % 0 # 9 9 o O O o < < v   ",
"    3 $ o o O X + u ^ ^ % 0 z z d = = = - ! ` ` ` f ; ; ; ; ; ; ; ; ; ; ; @ @ 7 ;.o., = = * 0 A H H r - | X.M + O O o o < 3     ",
"    3 1 $ o O X 9 *.-.V % & r d d p = = = S ` ` ~ p ; ; @ ; ; ; ; ; ; , ; @ j r.F.b.P = = * f N V x & . i | | + X O o & < 3     ",
"    h 1 < o O X + w % 9 l 0 - r s s - * = p S A f , , , @ @ ; @ , ; , , ; f a.K.n.j.1.Z = p c n b e e I r X + o O O o & 1 h     ",
"      1 < o X O O o l *.-.e % 0 e p 0 = = = = ; = , = , @ @ @ , , , , , , - $.b.j.u.>.[ d d c c r # q @.9.D X O O o & < 3       ",
"      g < & o o O + U [ 0 9 0 % - 0 0 - = * = = = = , , , , , , , , = , = = 5 @.u.:.*.[ ^ y y y $ e e & D M X O o o < < 6       ",
"        1 < o o O O + X y @.R % % - % - - * * - = * = = = = = = , = , = , = = s [ *.[ [ V N e 0 # E -.m o o O O o o < 1         ",
"        g 1 < o O O O 9 =.*.r & % % % % * - % = = - = * = = = = = = = = = = = * y ( ( V V l 0 0 0 9 ] *.+ O O o o & 1 a         ",
"          1 < o O O O O i 9 9 [ S % - % % % * - = % = - = = * = = = * = = = % - = y V S l e # S =.y + w O o O o o < 1           ",
"          g 1 $ & o O X X + X.:.w & 0 & % % % = - = = = - * * = * - = * = & = = = = r y % e q 9 ] *.9 X X O o o < 1 g           ",
"            6 < & o X O X + R w 9 X.J # # - & = % % % & * - - % - = % - % = % % & % & & # D :.r + m + O O X o o < 3             ",
"            v 1 < & o O O O O o ] :.w # % 9 % % & * = & % * = % % * = % - % - % & % % & % 0 *.X.o X O O o o $ < 1 H             ",
"              h 1 < < o O O O O F l # # % % & % % & % & - % & * - % & % = % % % & % # o o o w m + X O O o & < 1 h               ",
"                g 1 < o o O O O X X X X o % # o 9 % % % % % % % % % & % # % % # 9 % % 9 o X X X X O o o o < < g                 ",
"                  g < < < o O O O X X X o o o o % % % % % 9 9 % % % % 9 9 % % 9 % X X X X o X X O X o & < 1 g                   ",
"                    g 1 1 o o o X O X X + X o X 9 X % # % % % % % % % % % % # X % X X X o O O o X o & < < g                     ",
"                      g 1 < < o o + O O X X O o X % 9 X % 9 O % 9 X % 9 X % X 9 O % X X O O O o o $ < 1 g                       ",
"                        h 1 1 $ o o o o O X X o O o o o o o o o X X % O O O O 9 O O O O O o + o $ 1 1 h                         ",
"                          v 3 1 < $ & o o O O o O O O O O O O o X X X X O % X X O O O o o o < < < 6 v                           ",
"                              g 1 1 < $ o o o o O O O O O O O O X O O O X X O X o o o & < < 1 1 g                               ",
"                                  g 1 < < < o o & o o X X X O O O X X X X X o X o < & < < 1 a                                   ",
"                                      a 3 1 < < & $ & & o & o + o o o o # $ & < < 1 1 1 g                                       ",
"                                          h 3 3 < < < < < < < < < < < < - $ < < 1 6 h                                           ",
"                                                h g 3 3 1 1 1 1 1 1 1 3 3 6 g h                                                 ",
"                                                            v v v v                                                             "
};
