/* XPM */
static char *qmidiplyr[] = {
/* columns rows colors chars-per-pixel */
"64 64 2 1 ",
"  c black",
". c None",
/* pixels */
"................................................................",
"................................................................",
"................................................................",
".............................      .............................",
"........................                ........................",
".....................    ..............    .....................",
"...................   .....          .....   ...................",
".................   ...     ........     ...   .................",
"................  ...   ................   ...  ................",
"..............  ...   ....................   ...  ..............",
".............  ..   ........................   ..  .............",
"............  ..  ............................  ..  ............",
"...........  ..  ..............................  ..  ...........",
"..........  ..  ..............    ..............  ..  ..........",
".........  .. ...............  ..  ............... ..  .........",
"......... ..  ..............  ....  ..............  .. .........",
"........ ..  ............... ...... ...............  .. ........",
".......  .  ......... ...... ...... ...... .........  .  .......",
"....... .. ........     .... .....  ....     ........ .. .......",
"......  .  .......  ...  .... .... .... ....  .......  .  ......",
"...... .. ........ .....  ...     ....  ..... ........ .. ......",
".....  .  .......  .....  ............  .....  .......  .  .....",
"..... .. ......... .....  ............  ..... ......... .. .....",
"..... .  ......... ..... .............. ....  .........  . .....",
"....  . ...........     ................     ........... .  ....",
".... .. ............   ..................   ............ .. ....",
".... .. ................................................ .. ....",
".... .  ................................................  . ....",
".... . ........    ..........................    ........ . ....",
"...  . .......  ..  .......................  ...  ....... .  ...",
"...  . ......  ..... ...................... .....  ...... .  ...",
"...  . ...... ...... ...................... ...... ...... .  ...",
"...  . ...... ...... ...................... ...... ...... .  ...",
"...  . ......  ..... ...................... .....  ...... .  ...",
"...  . .......  ...  .......................  ..  ....... .  ...",
".... . ........    ..........................    ........ . ....",
".... .  ................................................  . ....",
".... .. ................................................ .. ....",
".... .. ................................................ .. ....",
"....  . ................................................ .  ....",
"..... .  ..............................................  . .....",
"..... .. .............................................. .. .....",
".....  .  ............................................  .  .....",
"...... .. ............................................ .. ......",
"......  .  ..........................................  .  ......",
"....... .. .......................................... .. .......",
".......  .  ..............................  ........  .  .......",
"........ ..  ..............................  ......  .. ........",
"......... ..  ..............................  ....  .. .........",
".........  .. ...............................  ... ..  .........",
"..........  ..  ..............................    ..  ..........",
"...........  ..  ..............................   .  ...........",
"............  ..  ...........      ...........      ............",
".............  ..   ........  ....  ........   ..  .............",
"..............  ...   .....  ......  .....   ...    ............",
"................  ...   ... ........ ...   ...  ...  ...........",
".................   ...     ........     ...   .....  ..........",
"...................   ....................   ........  .........",
".....................    ..............    ...........  ........",
"........................                ...............  .......",
".............................      .............................",
"................................................................",
"................................................................",
"................................................................"
};
